<?xml version="1.0" encoding="utf-8"?>
<!-- Generator: Adobe Illustrator 24.3.0, SVG Export Plug-In . SVG Version: 6.00 Build 0)  -->
<svg version="1.1" id="Layer_1" xmlns="http://www.w3.org/2000/svg" xmlns:xlink="http://www.w3.org/1999/xlink" x="0px" y="0px"
	 viewBox="0 0 1366 325" style="enable-background:new 0 0 1366 325;" xml:space="preserve">
<style type="text/css">
	.st0{fill:#FFFFFF;}
	.st1{font-family:'Roboto', sans-serif;}
	.st2{font-size:21px;}
	.st3{font-size:18px;}
	.st4{fill:none;stroke:#000000;stroke-miterlimit:10;}
</style>
<g>
	<rect x="23.5" y="25.5" class="st0" width="299" height="223"/>
	<path d="M322,26v222H24V26H322 M323,25H23v224h300V25L323,25z"/>
</g>
<g>
	<rect x="363.3" y="137.5" class="st0" width="299" height="111"/>
	<path d="M661.8,138v110h-298V138H661.8 M662.8,137h-300v112h300V137L662.8,137z"/>
</g>
<g>
	<rect x="703.1" y="193.3" class="st0" width="299" height="55.2"/>
	<path d="M1001.6,193.8V248h-298v-54.2H1001.6 M1002.6,192.8h-300V249h300V192.8L1002.6,192.8z"/>
</g>
<g>
	<rect x="1042.9" y="221.6" class="st0" width="299" height="26.9"/>
	<path d="M1341.4,222.1V248h-298v-25.9H1341.4 M1342.4,221.1h-300V249h300V221.1L1342.4,221.1z"/>
</g>
<text transform="matrix(1 0 0 1 62.8296 85.8652)" class="st1 st2">Multipurpose Computers</text>
<text transform="matrix(1 0 0 1 383.0585 85.3658)" class="st1 st2">Specialise Embedded Devices</text>
<text transform="matrix(1 0 0 1 710.1752 85.3659)" class="st1 st2">Connected Sensors and Controls</text>
<text transform="matrix(1 0 0 1 1077.6431 89.366)" class="st1 st2">Passively Trackable Object</text>
<text transform="matrix(1 0 0 1 82.2045 289.3658)" class="st1 st3">Resourceful and generic</text>
<text transform="matrix(1 0 0 1 1117.7391 289.3657)" class="st1 st3">Limited and specific</text>
<g>
	<line x1="1342.2" y1="268.3" x2="1015" y2="268.3"/>
	<g>
		<line class="st4" x1="1330.2" y1="268.3" x2="1015" y2="268.3"/>
		<g>
			<polygon points="1324.6,260.9 1327.8,268.3 1324.6,275.7 1342.2,268.3 			"/>
		</g>
	</g>
</g>
<text transform="matrix(1 0 0 1 386.6646 240.3658)" class="st1 st3">Home assistant, smart thermostat</text>
<text transform="matrix(1 0 0 1 735.2324 240.3656)" class="st1 st3">Temperature sensor, Light Bulb</text>
<text transform="matrix(1 0 0 1 97.406 240.3658)" class="st1 st3">Smartphone, laptop</text>
<text transform="matrix(1 0 0 1 1136.4709 240.3657)" class="st1 st3">RFID tag, QR Code</text>
<g>
	<line x1="22.8" y1="268.2" x2="350" y2="268.2"/>
	<g>
		<line class="st4" x1="34.7" y1="268.2" x2="350" y2="268.2"/>
		<g>
			<polygon points="40.4,275.6 37.2,268.2 40.4,260.8 22.8,268.2 			"/>
		</g>
	</g>
</g>
</svg>
