<?xml version="1.0" encoding="utf-8"?>
<!-- Generator: Adobe Illustrator 24.3.0, SVG Export Plug-In . SVG Version: 6.00 Build 0)  -->
<svg version="1.1" id="Layer_1" xmlns="http://www.w3.org/2000/svg" xmlns:xlink="http://www.w3.org/1999/xlink" x="0px" y="0px"
	 viewBox="0 0 479 208" style="enable-background:new 0 0 479 208;" xml:space="preserve">
<style type="text/css">
	.st0{fill:#CCCCCC;}
	.st1{font-family:'PTSans-NarrowBold';}
	.st2{font-size:12px;}
	.st3{fill:none;stroke:#000000;stroke-miterlimit:10;}
	.st4{font-size:10px;}
	.st5{fill:none;stroke:#B3B3B3;stroke-width:2;stroke-miterlimit:10;stroke-dasharray:4;}
</style>
<path class="st0" d="M276.5,143.3h-74.6c-12.7,0-23-10.3-23-23s10.3-23,23-23h4.1c3.8-13.3,16-23,30.4-23
	c17.4,0,31.6,14.1,31.6,31.6v2.9h8.6c9.5,0,17.2,7.7,17.2,17.2C293.8,135.6,286.1,143.3,276.5,143.3 M278.6,97.6
	C274.7,77.9,257.3,63,236.4,63c-16.6,0-31,9.4-38.2,23.1c-17.3,1.9-30.7,16.5-30.7,34.3c0,19,15.4,34.4,34.4,34.4h74.6
	c15.8,0,28.7-12.8,28.7-28.7C305.2,111,293.5,98.7,278.6,97.6z"/>
<text transform="matrix(1 0 0 1 55.0051 137.8633)" class="st1 st2">light1</text>
<text transform="matrix(1 0 0 1 118.1388 137.8635)" class="st1 st2">Raspberry Pi</text>
<path d="M76,115h3v2h-3V115 M57,115h3v2h-3V115 M69,105v3h-2v-3H69 M60.9,107.5l2.1,2.1l-1.4,1.4l-2.1-2.1L60.9,107.5 M73,109.6
	l2.1-2.1l1.4,1.4l-2.1,2.1L73,109.6 M68,110c3.3,0,6,2.7,6,6c0,2.2-1.2,4.2-3,5.2v1.8c0,0.6-0.4,1-1,1h-4c-0.6,0-1-0.4-1-1v-1.8
	c-1.8-1-3-3-3-5.2C62,112.7,64.7,110,68,110 M70,125v1c0,0.6-0.4,1-1,1h-2c-0.6,0-1-0.4-1-1v-1H70 M67,122h2v-2.1c1.7-0.4,3-2,3-3.9
	c0-2.2-1.8-4-4-4s-4,1.8-4,4c0,1.9,1.3,3.4,3,3.9V122z"/>
<path d="M153,115h2v2h-2V115 M137,112h16c1.1,0,2,0.9,2,2h-3v2h-14v4h3v3h11v1h3c0,1.1-0.9,2-2,2h-4v1h-2v-1h-3v1h-4v-1h-3
	c-1.1,0-2-0.9-2-2v-10C135,112.9,135.9,112,137,112 M152,122h-10v-5h10v1h3v2h-3V122 M146,119v2h2v-2H146 M138,113v2h1v-2H138
	 M140,113v2h1v-2H140 M142,113v2h1v-2H142 M144,113v2h1v-2H144 M146,113v2h1v-2H146 M148,113v2h1v-2H148 M153,121h2v2h-2V121z"/>
<path d="M237,109h16c0.6,0,1,0.4,1,1v4c0,0.6-0.4,1-1,1h-16c-0.6,0-1-0.4-1-1v-4C236,109.4,236.4,109,237,109 M237,117h16
	c0.6,0,1,0.4,1,1v4c0,0.6-0.4,1-1,1h-16c-0.6,0-1-0.4-1-1v-4C236,117.4,236.4,117,237,117 M237,125h16c0.6,0,1,0.4,1,1v4
	c0,0.6-0.4,1-1,1h-16c-0.6,0-1-0.4-1-1v-4C236,125.4,236.4,125,237,125 M242,113h1v-2h-1V113 M242,121h1v-2h-1V121 M242,129h1v-2h-1
	V129 M238,111v2h2v-2H238 M238,119v2h2v-2H238 M238,127v2h2v-2H238z"/>
<g>
	<line x1="122.7" y1="120.1" x2="94" y2="120.1"/>
	<g>
		<line class="st3" x1="116.7" y1="120.1" x2="100" y2="120.1"/>
		<g>
			<polygon points="113.9,116.4 115.5,120.1 113.9,123.8 122.7,120.1 			"/>
		</g>
		<g>
			<polygon points="102.8,116.4 101.2,120.1 102.8,123.8 94,120.1 			"/>
		</g>
	</g>
</g>
<g>
	<line x1="164.6" y1="120.1" x2="227" y2="120.1"/>
	<g>
		<line class="st3" x1="164.6" y1="120.1" x2="221" y2="120.1"/>
		<g>
			<polygon points="218.2,123.8 219.8,120.1 218.2,116.4 227,120.1 			"/>
		</g>
	</g>
</g>
<g>
	<line x1="260.2" y1="131.4" x2="304.3" y2="175.5"/>
	<g>
		<line class="st3" x1="260.2" y1="131.4" x2="300.1" y2="171.3"/>
		<g>
			<polygon points="295.5,171.9 299.2,170.4 300.7,166.7 304.3,175.5 			"/>
		</g>
	</g>
</g>
<g>
	<line x1="260.2" y1="101.5" x2="304.3" y2="57.4"/>
	<g>
		<line class="st3" x1="260.2" y1="101.5" x2="300.1" y2="61.7"/>
		<g>
			<polygon points="300.7,66.3 299.2,62.5 295.5,61 304.3,57.4 			"/>
		</g>
	</g>
</g>
<text transform="matrix(1 0 0 1 401.0051 67.3633)" class="st1 st2">light2</text>
<text transform="matrix(1 0 0 1 311.1388 67.3635)" class="st1 st2">Raspberry Pi</text>
<path d="M422,44h3v2h-3V44 M403,44h3v2h-3V44 M415,34v3h-2v-3H415 M406.9,36.5l2.1,2.1l-1.4,1.4l-2.1-2.1L406.9,36.5 M419,38.6
	l2.1-2.1l1.4,1.4l-2.1,2.1L419,38.6 M414,39c3.3,0,6,2.7,6,6c0,2.2-1.2,4.2-3,5.2V52c0,0.6-0.4,1-1,1h-4c-0.6,0-1-0.4-1-1v-1.8
	c-1.8-1-3-3-3-5.2C408,41.7,410.7,39,414,39 M416,54v1c0,0.6-0.4,1-1,1h-2c-0.6,0-1-0.4-1-1v-1H416 M413,51h2v-2.1
	c1.7-0.4,3-2,3-3.9c0-2.2-1.8-4-4-4s-4,1.8-4,4c0,1.9,1.3,3.4,3,3.9V51z"/>
<path d="M345,43h2v2h-2V43 M329,40h16c1.1,0,2,0.9,2,2h-3v2h-14v4h3v3h11v1h3c0,1.1-0.9,2-2,2h-4v1h-2v-1h-3v1h-4v-1h-3
	c-1.1,0-2-0.9-2-2V42C327,40.9,327.9,40,329,40 M344,50h-10v-5h10v1h3v2h-3V50 M338,47v2h2v-2H338 M330,41v2h1v-2H330 M332,41v2h1
	v-2H332 M334,41v2h1v-2H334 M336,41v2h1v-2H336 M338,41v2h1v-2H338 M340,41v2h1v-2H340 M345,49h2v2h-2V49z"/>
<g>
	<line x1="391.9" y1="175.1" x2="363.2" y2="175.1"/>
	<g>
		<line class="st3" x1="385.9" y1="175.1" x2="369.2" y2="175.1"/>
		<g>
			<polygon points="383.1,171.4 384.7,175.1 383.1,178.8 391.9,175.1 			"/>
		</g>
		<g>
			<polygon points="372,171.4 370.4,175.1 372,178.8 363.2,175.1 			"/>
		</g>
	</g>
</g>
<text transform="matrix(1 0 0 1 401.0051 192.3633)" class="st1 st2">light3</text>
<text transform="matrix(1 0 0 1 311.1388 192.3635)" class="st1 st2">Raspberry Pi</text>
<path d="M422,169h3v2h-3V169 M403,169h3v2h-3V169 M415,159v3h-2v-3H415 M406.9,161.5l2.1,2.1l-1.4,1.4l-2.1-2.1L406.9,161.5
	 M419,163.6l2.1-2.1l1.4,1.4l-2.1,2.1L419,163.6 M414,164c3.3,0,6,2.7,6,6c0,2.2-1.2,4.2-3,5.2v1.8c0,0.6-0.4,1-1,1h-4
	c-0.6,0-1-0.4-1-1v-1.8c-1.8-1-3-3-3-5.2C408,166.7,410.7,164,414,164 M416,179v1c0,0.6-0.4,1-1,1h-2c-0.6,0-1-0.4-1-1v-1H416
	 M413,176h2v-2.1c1.7-0.4,3-2,3-3.9c0-2.2-1.8-4-4-4s-4,1.8-4,4c0,1.9,1.3,3.4,3,3.9V176z"/>
<path d="M345,168h2v2h-2V168 M329,165h16c1.1,0,2,0.9,2,2h-3v2h-14v4h3v3h11v1h3c0,1.1-0.9,2-2,2h-4v1h-2v-1h-3v1h-4v-1h-3
	c-1.1,0-2-0.9-2-2v-10C327,165.9,327.9,165,329,165 M344,175h-10v-5h10v1h3v2h-3V175 M338,172v2h2v-2H338 M330,166v2h1v-2H330
	 M332,166v2h1v-2H332 M334,166v2h1v-2H334 M336,166v2h1v-2H336 M338,166v2h1v-2H338 M340,166v2h1v-2H340 M345,174h2v2h-2V174z"/>
<g>
	<line x1="392.3" y1="50.6" x2="363.6" y2="50.6"/>
	<g>
		<line class="st3" x1="386.3" y1="50.6" x2="369.6" y2="50.6"/>
		<g>
			<polygon points="383.5,46.9 385.1,50.6 383.5,54.3 392.3,50.6 			"/>
		</g>
		<g>
			<polygon points="372.4,46.9 370.8,50.6 372.4,54.3 363.6,50.6 			"/>
		</g>
	</g>
</g>
<text transform="matrix(1 0 0 1 222.3958 92.0797)"><tspan x="0" y="0" class="st1 st4">MQTT</tspan><tspan x="-0.6" y="12" class="st1 st4">Server</tspan></text>
<rect x="292" y="31" class="st5" width="86" height="168"/>
<rect x="108" y="84" class="st5" width="71" height="71"/>
<text transform="matrix(1 0 0 1 108.0048 67.7089)"><tspan x="0" y="0" class="st1 st4">Publisher of the topic</tspan><tspan x="0" y="12" class="st1 st4">/light1/status</tspan></text>
<text transform="matrix(1 0 0 1 291.6536 12.7092)"><tspan x="0" y="0" class="st1 st4">Subscribers of the topic</tspan><tspan x="0" y="12" class="st1 st4">/light1/status</tspan></text>
<text transform="matrix(1 0 0 1 201.7682 133.7093)" class="st1 st4">‘on’</text>
<text transform="matrix(1 0 0 1 253.7679 91.7095)" class="st1 st4">‘on’</text>
<text transform="matrix(1 0 0 1 257.7685 153.7093)" class="st1 st4">‘on’</text>
</svg>
