<?xml version="1.0" encoding="utf-8"?>
<!-- Generator: Adobe Illustrator 24.3.0, SVG Export Plug-In . SVG Version: 6.00 Build 0)  -->
<svg version="1.1" id="Layer_1" xmlns="http://www.w3.org/2000/svg" xmlns:xlink="http://www.w3.org/1999/xlink" x="0px" y="0px"
	 viewBox="0 0 533 171" style="enable-background:new 0 0 533 171;" xml:space="preserve">
<style type="text/css">
	.st0{fill:#CCCCCC;}
	.st1{font-family:'PTSans-NarrowBold';}
	.st2{font-size:12px;}
	.st3{fill:none;stroke:#000000;stroke-miterlimit:10;}
	.st4{fill:none;stroke:#000000;stroke-miterlimit:10;stroke-dasharray:4,4;}
</style>
<path class="st0" d="M322.9,116.8h-99.2c-16.9,0-30.5-13.7-30.5-30.5s13.7-30.5,30.5-30.5h5.4c5-17.6,21.3-30.5,40.4-30.5
	c23.2,0,42,18.8,42,42V71h11.4c12.6,0,22.9,10.2,22.9,22.9S335.6,116.8,322.9,116.8 M325.6,56c-5.2-26.2-28.3-46-56.1-46
	c-22,0-41.2,12.5-50.7,30.7c-23,2.5-40.8,21.9-40.8,45.5c0,25.3,20.5,45.8,45.8,45.8h99.2c21.1,0,38.1-17.1,38.1-38.1
	C361.1,73.8,345.4,57.4,325.6,56z"/>
<text transform="matrix(1 0 0 1 20.5584 62.7949)" class="st1 st2">lightbulb</text>
<text transform="matrix(1 0 0 1 131.9428 115.864)" class="st1 st2">router</text>
<text transform="matrix(1 0 0 1 254.4429 36.8638)" class="st1 st2">Bucket</text>
<text transform="matrix(1 0 0 1 14.3185 150.8635)" class="st1 st2">Raspberry Pi</text>
<text transform="matrix(1 0 0 1 26.1984 106.8643)" class="st1 st2">laptop</text>
<path d="M49,34h3v2h-3V34 M30,34h3v2h-3V34 M42,24v3h-2v-3H42 M33.9,26.5l2.1,2.1L34.6,30l-2.1-2.1L33.9,26.5 M46,28.6l2.1-2.1
	l1.4,1.4L47.4,30L46,28.6 M41,29c3.3,0,6,2.7,6,6c0,2.2-1.2,4.2-3,5.2V42c0,0.6-0.4,1-1,1h-4c-0.6,0-1-0.4-1-1v-1.8
	c-1.8-1-3-3-3-5.2C35,31.7,37.7,29,41,29 M43,44v1c0,0.6-0.4,1-1,1h-2c-0.6,0-1-0.4-1-1v-1H43 M40,41h2v-2.1c1.7-0.4,3-2,3-3.9
	c0-2.2-1.8-4-4-4c-2.2,0-4,1.8-4,4c0,1.9,1.3,3.4,3,3.9V41z"/>
<path d="M146.1,81.5c-5.5,0-10,4.5-10,10s4.5,10,10,10s10-4.5,10-10S151.6,81.5,146.1,81.5 M146.1,99.5c-4.4,0-8-3.6-8-8s3.6-8,8-8
	s8,3.6,8,8S150.6,99.5,146.1,99.5 M147.1,92.5v3h2l-3,3l-3-3h2v-3 M139.1,92.5h3v2l3-3l-3-3v2h-3 M145.1,90.5v-3h-2l3-3l3,3h-2v3
	 M153.1,90.5h-3v-2l-3,3l3,3v-2h3"/>
<path d="M33,78h16v10H33 M49,90c1.1,0,2-0.9,2-2V78c0-1.1-0.9-2-2-2H33c-1.1,0-2,0.9-2,2v10c0,1.1,0.9,2,2,2h-4v2h24v-2H49z"/>
<path d="M49,124h2v2h-2V124 M33,121h16c1.1,0,2,0.9,2,2h-3v2H34v4h3v3h11v1h3c0,1.1-0.9,2-2,2h-4v1h-2v-1h-3v1h-4v-1h-3
	c-1.1,0-2-0.9-2-2v-10C31,121.9,31.9,121,33,121 M48,131H38v-5h10v1h3v2h-3V131 M42,128v2h2v-2H42 M34,122v2h1v-2H34 M36,122v2h1v-2
	H36 M38,122v2h1v-2H38 M40,122v2h1v-2H40 M42,122v2h1v-2H42 M44,122v2h1v-2H44 M49,130h2v2h-2V130z"/>
<g>
	<line x1="60.5" y1="128.5" x2="123.5" y2="98.5"/>
	<g>
		<line class="st3" x1="65.9" y1="125.9" x2="118.1" y2="101.1"/>
		<g>
			<polygon points="70,128.1 67,125.4 66.8,121.4 60.5,128.5 			"/>
		</g>
		<g>
			<polygon points="117.2,105.6 117,101.6 114,98.9 123.5,98.5 			"/>
		</g>
	</g>
</g>
<g>
	<line x1="123.5" y1="84.5" x2="68.5" y2="52.5"/>
	<g>
		<line class="st3" x1="118.3" y1="81.5" x2="73.7" y2="55.5"/>
		<g>
			<polygon points="117.8,76.9 117.3,80.9 114.1,83.3 123.5,84.5 			"/>
		</g>
		<g>
			<polygon points="77.9,53.7 74.7,56.1 74.2,60.1 68.5,52.5 			"/>
		</g>
	</g>
</g>
<text transform="matrix(1 0 0 1 378.9431 115.864)" class="st1 st2">router</text>
<path d="M393.1,81.5c-5.5,0-10,4.5-10,10s4.5,10,10,10s10-4.5,10-10S398.6,81.5,393.1,81.5 M393.1,99.5c-4.4,0-8-3.6-8-8s3.6-8,8-8
	s8,3.6,8,8S397.6,99.5,393.1,99.5 M394.1,92.5v3h2l-3,3l-3-3h2v-3 M386.1,92.5h3v2l3-3l-3-3v2h-3 M392.1,90.5v-3h-2l3-3l3,3h-2v3
	 M400.1,90.5h-3v-2l-3,3l3,3v-2h3"/>
<g>
	<line x1="411.5" y1="79.5" x2="478.5" y2="42.5"/>
	<g>
		<line class="st3" x1="416.7" y1="76.6" x2="473.3" y2="45.4"/>
		<g>
			<polygon points="421,78.5 417.8,76 417.4,72 411.5,79.5 			"/>
		</g>
		<g>
			<polygon points="472.6,50 472.2,46 469,43.5 478.5,42.5 			"/>
		</g>
	</g>
</g>
<g>
	<line x1="477.5" y1="126.5" x2="412.5" y2="99.5"/>
	<g>
		<line class="st3" x1="472" y1="124.2" x2="418" y2="101.8"/>
		<g>
			<polygon points="470.8,119.7 470.8,123.7 468,126.6 477.5,126.5 			"/>
		</g>
		<g>
			<polygon points="422,99.4 419.2,102.3 419.2,106.3 412.5,99.5 			"/>
		</g>
	</g>
</g>
<path d="M229,81.5c-5.5,0-10,4.5-10,10s4.5,10,10,10s10-4.5,10-10S234.5,81.5,229,81.5 M229,99.5c-4.4,0-8-3.6-8-8s3.6-8,8-8
	s8,3.6,8,8S233.4,99.5,229,99.5 M230,92.5v3h2l-3,3l-3-3h2v-3 M222,92.5h3v2l3-3l-3-3v2h-3 M228,90.5v-3h-2l3-3l3,3h-2v3 M236,90.5
	h-3v-2l-3,3l3,3v-2h3"/>
<path d="M311,81.5c-5.5,0-10,4.5-10,10s4.5,10,10,10s10-4.5,10-10S316.5,81.5,311,81.5 M311,99.5c-4.4,0-8-3.6-8-8s3.6-8,8-8
	s8,3.6,8,8S315.4,99.5,311,99.5 M312,92.5v3h2l-3,3l-3-3h2v-3 M304,92.5h3v2l3-3l-3-3v2h-3 M310,90.5v-3h-2l3-3l3,3h-2v3 M318,90.5
	h-3v-2l-3,3l3,3v-2h3"/>
<path d="M261.2,41h16c0.6,0,1,0.4,1,1v4c0,0.6-0.4,1-1,1h-16c-0.6,0-1-0.4-1-1v-4C260.2,41.4,260.7,41,261.2,41 M261.2,49h16
	c0.6,0,1,0.4,1,1v4c0,0.6-0.4,1-1,1h-16c-0.6,0-1-0.4-1-1v-4C260.2,49.4,260.7,49,261.2,49 M261.2,57h16c0.6,0,1,0.4,1,1v4
	c0,0.6-0.4,1-1,1h-16c-0.6,0-1-0.4-1-1v-4C260.2,57.4,260.7,57,261.2,57 M266.2,45h1v-2h-1V45 M266.2,53h1v-2h-1V53 M266.2,61h1v-2
	h-1V61 M262.2,43v2h2v-2H262.2 M262.2,51v2h2v-2H262.2 M262.2,59v2h2v-2H262.2z"/>
<g>
	<g>
		<line class="st4" x1="247" y1="91.5" x2="293" y2="91.5"/>
		<g>
			<polygon points="249.8,95.2 248.2,91.5 249.8,87.8 241,91.5 			"/>
		</g>
		<g>
			<polygon points="290.2,95.2 291.8,91.5 290.2,87.8 299,91.5 			"/>
		</g>
	</g>
</g>
<g>
	<g>
		<line class="st4" x1="164" y1="91.5" x2="210" y2="91.5"/>
		<g>
			<polygon points="166.8,95.2 165.2,91.5 166.8,87.8 158,91.5 			"/>
		</g>
		<g>
			<polygon points="207.2,95.2 208.8,91.5 207.2,87.8 216,91.5 			"/>
		</g>
	</g>
</g>
<g>
	<g>
		<line class="st4" x1="329" y1="91.5" x2="375" y2="91.5"/>
		<g>
			<polygon points="331.8,95.2 330.2,91.5 331.8,87.8 323,91.5 			"/>
		</g>
		<g>
			<polygon points="372.2,95.2 373.8,91.5 372.2,87.8 381,91.5 			"/>
		</g>
	</g>
</g>
<g>
	<g>
		<line class="st3" x1="71" y1="91.5" x2="117" y2="91.5"/>
		<g>
			<polygon points="73.8,95.2 72.2,91.5 73.8,87.8 65,91.5 			"/>
		</g>
		<g>
			<polygon points="114.2,95.2 115.8,91.5 114.2,87.8 123,91.5 			"/>
		</g>
	</g>
</g>
<g>
	<g>
		<line class="st3" x1="418" y1="90.5" x2="464" y2="90.5"/>
		<g>
			<polygon points="420.8,94.2 419.2,90.5 420.8,86.8 412,90.5 			"/>
		</g>
		<g>
			<polygon points="461.2,94.2 462.8,90.5 461.2,86.8 470,90.5 			"/>
		</g>
	</g>
</g>
<text transform="matrix(1 0 0 1 476.5583 62.7949)" class="st1 st2">lightbulb</text>
<text transform="matrix(1 0 0 1 470.3185 150.8635)" class="st1 st2">Raspberry Pi</text>
<text transform="matrix(1 0 0 1 482.1983 106.8643)" class="st1 st2">laptop</text>
<path d="M505,34h3v2h-3V34 M486,34h3v2h-3V34 M498,24v3h-2v-3H498 M489.9,26.5l2.1,2.1l-1.4,1.4l-2.1-2.1L489.9,26.5 M502,28.6
	l2.1-2.1l1.4,1.4l-2.1,2.1L502,28.6 M497,29c3.3,0,6,2.7,6,6c0,2.2-1.2,4.2-3,5.2V42c0,0.6-0.4,1-1,1h-4c-0.6,0-1-0.4-1-1v-1.8
	c-1.8-1-3-3-3-5.2C491,31.7,493.7,29,497,29 M499,44v1c0,0.6-0.4,1-1,1h-2c-0.6,0-1-0.4-1-1v-1H499 M496,41h2v-2.1
	c1.7-0.4,3-2,3-3.9c0-2.2-1.8-4-4-4s-4,1.8-4,4c0,1.9,1.3,3.4,3,3.9V41z"/>
<path d="M489,78h16v10h-16 M505,90c1.1,0,2-0.9,2-2V78c0-1.1-0.9-2-2-2h-16c-1.1,0-2,0.9-2,2v10c0,1.1,0.9,2,2,2h-4v2h24v-2H505z"/>
<path d="M505,124h2v2h-2V124 M489,121h16c1.1,0,2,0.9,2,2h-3v2h-14v4h3v3h11v1h3c0,1.1-0.9,2-2,2h-4v1h-2v-1h-3v1h-4v-1h-3
	c-1.1,0-2-0.9-2-2v-10C487,121.9,487.9,121,489,121 M504,131h-10v-5h10v1h3v2h-3V131 M498,128v2h2v-2H498 M490,122v2h1v-2H490
	 M492,122v2h1v-2H492 M494,122v2h1v-2H494 M496,122v2h1v-2H496 M498,122v2h1v-2H498 M500,122v2h1v-2H500 M505,130h2v2h-2V130z"/>
<text transform="matrix(1 0 0 1 166.493 35.01)" class="st1 st2">the Internet</text>
<text transform="matrix(1 0 0 1 30.2496 15.0101)" class="st1 st2">local network</text>
<text transform="matrix(1 0 0 1 416.0936 15.0101)" class="st1 st2">local network</text>
<g>
	<line x1="229.9" y1="77.1" x2="254" y2="53"/>
	<g>
		<line class="st4" x1="234.2" y1="72.8" x2="249.8" y2="57.2"/>
		<g>
			<polygon points="238.8,73.5 235,72 233.5,68.2 229.9,77.1 			"/>
		</g>
		<g>
			<polygon points="250.4,61.8 248.9,58.1 245.2,56.6 254,53 			"/>
		</g>
	</g>
</g>
<g>
	<line x1="284.4" y1="52.5" x2="308.5" y2="76.6"/>
	<g>
		<line class="st4" x1="288.6" y1="56.7" x2="304.3" y2="72.4"/>
		<g>
			<polygon points="288,61.3 289.5,57.6 293.3,56.1 284.4,52.5 			"/>
		</g>
		<g>
			<polygon points="299.7,73 303.4,71.5 304.9,67.7 308.5,76.6 			"/>
		</g>
	</g>
</g>
</svg>
