<?xml version="1.0" encoding="utf-8"?>
<!-- Generator: Adobe Illustrator 24.3.0, SVG Export Plug-In . SVG Version: 6.00 Build 0)  -->
<svg version="1.1" id="Layer_1" xmlns="http://www.w3.org/2000/svg" xmlns:xlink="http://www.w3.org/1999/xlink" x="0px" y="0px"
	 viewBox="0 0 522 265" style="enable-background:new 0 0 522 265;" xml:space="preserve">
<style type="text/css">
	.st0{stroke:#000000;stroke-width:2;stroke-miterlimit:10;}
	.st1{fill:#CCCCCC;}
	.st2{font-family:'PTSans-NarrowBold';}
	.st3{font-size:5.7109px;}
	.st4{font-size:12.5387px;}
</style>
<path d="M71,87.7h16v10H71 M87,99.7c1.1,0,2-0.9,2-2v-10c0-1.1-0.9-2-2-2H71c-1.1,0-2,0.9-2,2v10c0,1.1,0.9,2,2,2h-4v2h24v-2H87z"/>
<line class="st0" x1="39" y1="63" x2="316" y2="63"/>
<path d="M123,31h16v10h-16 M139,43c1.1,0,2-0.9,2-2V31c0-1.1-0.9-2-2-2h-16c-1.1,0-2,0.9-2,2v10c0,1.1,0.9,2,2,2h-4v2h24v-2H139z"/>
<path d="M178,87.7h16v10h-16 M194,99.7c1.1,0,2-0.9,2-2v-10c0-1.1-0.9-2-2-2h-16c-1.1,0-2,0.9-2,2v10c0,1.1,0.9,2,2,2h-4v2h24v-2
	H194z"/>
<path d="M230,31h16v10h-16 M246,43c1.1,0,2-0.9,2-2V31c0-1.1-0.9-2-2-2h-16c-1.1,0-2,0.9-2,2v10c0,1.1,0.9,2,2,2h-4v2h24v-2H246z"/>
<path d="M285,87.7h16v10h-16 M301,99.7c1.1,0,2-0.9,2-2v-10c0-1.1-0.9-2-2-2h-16c-1.1,0-2,0.9-2,2v10c0,1.1,0.9,2,2,2h-4v2h24v-2
	H301z"/>
<line class="st0" x1="79" y1="63" x2="79" y2="85.7"/>
<line class="st0" x1="185.6" y1="63.1" x2="185.6" y2="85.8"/>
<line class="st0" x1="292.6" y1="63.1" x2="292.6" y2="85.8"/>
<line class="st0" x1="237.6" y1="41.1" x2="237.6" y2="63.8"/>
<line class="st0" x1="130.6" y1="41.1" x2="130.6" y2="63.8"/>
<path d="M133,179h16v10h-16 M149,191c1.1,0,2-0.9,2-2v-10c0-1.1-0.9-2-2-2h-16c-1.1,0-2,0.9-2,2v10c0,1.1,0.9,2,2,2h-4v2h24v-2H149z
	"/>
<path d="M234,126h16v10h-16 M250,138c1.1,0,2-0.9,2-2v-10c0-1.1-0.9-2-2-2h-16c-1.1,0-2,0.9-2,2v10c0,1.1,0.9,2,2,2h-4v2h24v-2H250z
	"/>
<path d="M210,220h16v10h-16 M226,232c1.1,0,2-0.9,2-2v-10c0-1.1-0.9-2-2-2h-16c-1.1,0-2,0.9-2,2v10c0,1.1,0.9,2,2,2h-4v2h24v-2H226z
	"/>
<path d="M290,164h16v10h-16 M306,176c1.1,0,2-0.9,2-2v-10c0-1.1-0.9-2-2-2h-16c-1.1,0-2,0.9-2,2v10c0,1.1,0.9,2,2,2h-4v2h24v-2H306z
	"/>
<path d="M326,211h16v10h-16 M342,223c1.1,0,2-0.9,2-2v-10c0-1.1-0.9-2-2-2h-16c-1.1,0-2,0.9-2,2v10c0,1.1,0.9,2,2,2h-4v2h24v-2H342z
	"/>
<line class="st0" x1="147" y1="198" x2="201" y2="226"/>
<line class="st0" x1="156.1" y1="175.8" x2="225" y2="140"/>
<line class="st0" x1="218" y1="215" x2="242" y2="144"/>
<line class="st0" x1="234" y1="225" x2="290.1" y2="181.3"/>
<line class="st0" x1="284" y1="162" x2="258.1" y2="142"/>
<line class="st0" x1="322" y1="206" x2="304" y2="184"/>
<path d="M354,89h16v10h-16 M370,101c1.1,0,2-0.9,2-2V89c0-1.1-0.9-2-2-2h-16c-1.1,0-2,0.9-2,2v10c0,1.1,0.9,2,2,2h-4v2h24v-2H370z"
	/>
<path d="M413,50h16v10h-16 M429,62c1.1,0,2-0.9,2-2V50c0-1.1-0.9-2-2-2h-16c-1.1,0-2,0.9-2,2v10c0,1.1,0.9,2,2,2h-4v2h24v-2H429z"/>
<path d="M473,87h16v10h-16 M489,99c1.1,0,2-0.9,2-2V87c0-1.1-0.9-2-2-2h-16c-1.1,0-2,0.9-2,2v10c0,1.1,0.9,2,2,2h-4v2h24v-2H489z"/>
<path d="M453,146h16v10h-16 M469,158c1.1,0,2-0.9,2-2v-10c0-1.1-0.9-2-2-2h-16c-1.1,0-2,0.9-2,2v10c0,1.1,0.9,2,2,2h-4v2h24v-2H469z
	"/>
<path d="M374,145h16v10h-16 M390,157c1.1,0,2-0.9,2-2v-10c0-1.1-0.9-2-2-2h-16c-1.1,0-2,0.9-2,2v10c0,1.1,0.9,2,2,2h-4v2h24v-2H390z
	"/>
<path d="M423,98c-5.5,0-10,4.5-10,10s4.5,10,10,10s10-4.5,10-10S428.5,98,423,98 M423,116c-4.4,0-8-3.6-8-8s3.6-8,8-8s8,3.6,8,8
	S427.4,116,423,116 M424,109v3h2l-3,3l-3-3h2v-3 M416,109h3v2l3-3l-3-3v2h-3 M422,107v-3h-2l3-3l3,3h-2v3 M430,107h-3v-2l-3,3l3,3
	v-2h3"/>
<line class="st0" x1="422" y1="92" x2="420.9" y2="66.8"/>
<line class="st0" x1="452.9" y1="141.8" x2="434.9" y2="119.8"/>
<line class="st0" x1="463.9" y1="96.8" x2="439" y2="103"/>
<line class="st0" x1="409" y1="108" x2="380.9" y2="100.8"/>
<line class="st0" x1="413" y1="120" x2="397" y2="140"/>
<line class="st0" x1="468.6" y1="53.6" x2="431" y2="97"/>
<path class="st1" d="M492.7,47.2h-16.5c-2.8,0-5.1-2.3-5.1-5.1c0-2.8,2.3-5.1,5.1-5.1h0.9c0.8-2.9,3.5-5.1,6.7-5.1c3.9,0,7,3.1,7,7
	v0.6h1.9c2.1,0,3.8,1.7,3.8,3.8S494.8,47.2,492.7,47.2 M493.1,37.1c-0.9-4.4-4.7-7.6-9.3-7.6c-3.7,0-6.8,2.1-8.4,5.1
	c-3.8,0.4-6.8,3.6-6.8,7.6c0,4.2,3.4,7.6,7.6,7.6h16.5c3.5,0,6.3-2.8,6.3-6.3C499,40,496.4,37.3,493.1,37.1z"/>
<text transform="matrix(1 0 0 1 470.9014 44.8545)" class="st2 st3">the Internet</text>
<text transform="matrix(1 0 0 1 369.8359 63.999)" class="st2 st4">Star </text>
<text transform="matrix(1 0 0 1 51.0826 47.8338)" class="st2 st4">Bus</text>
<text transform="matrix(1 0 0 1 167.3083 149.8336)" class="st2 st4">Mesh</text>
</svg>
