<?xml version="1.0" encoding="utf-8"?>
<!-- Generator: Adobe Illustrator 24.3.0, SVG Export Plug-In . SVG Version: 6.00 Build 0)  -->
<svg version="1.1" id="Layer_1" xmlns="http://www.w3.org/2000/svg" xmlns:xlink="http://www.w3.org/1999/xlink" x="0px" y="0px"
	 viewBox="0 0 1393 1486" style="enable-background:new 0 0 1393 1486;" xml:space="preserve">
<style type="text/css">
	.st0{fill:#FFFFFF;}
	.st1{fill:none;stroke:#005F97;stroke-width:2;stroke-miterlimit:10;}
	.st2{fill:#005F97;}
	.st3{font-family:'Roboto-Regular';}
	.st4{font-size:12px;}
</style>
<image style="overflow:visible;" width="1684" height="1554" xlink:href="../../Desktop/Screen Shot 2020-10-06 at 20.36.09.png"  transform="matrix(0.5 0 0 0.5 262 693)">
</image>
<g id="_x38_lCxFz.tif">
	
		<image style="overflow:visible;" width="1666" height="1080" id="Layer_0" xlink:href="62C21EACA8C12CCE.png"  transform="matrix(0.5 0 0 0.5 267 40)">
	</image>
</g>
<g>
	<line class="st0" x1="237" y1="428" x2="352" y2="428"/>
	<g>
		<line class="st1" x1="237" y1="428" x2="340.1" y2="428"/>
		<g>
			<polygon class="st2" points="334.4,435.4 337.6,428 334.4,420.6 352,428 			"/>
		</g>
	</g>
</g>
<g>
	<line class="st0" x1="237" y1="277" x2="310" y2="248"/>
	<g>
		<line class="st1" x1="237" y1="277" x2="298.9" y2="252.4"/>
		<g>
			<polygon class="st2" points="296.4,261.4 296.6,253.3 290.9,247.6 310,248 			"/>
		</g>
	</g>
</g>
<g>
	<line class="st0" x1="237" y1="214" x2="308" y2="177.5"/>
	<g>
		<line class="st1" x1="237" y1="214" x2="297.4" y2="183"/>
		<g>
			<polygon class="st2" points="295.8,192.1 295.2,184.1 289,179 308,177.5 			"/>
		</g>
	</g>
</g>
<text transform="matrix(1 0 0 1 141.562 417.6143)"><tspan x="0" y="0" class="st3 st4">define a function</tspan><tspan x="-82.5" y="14.4" class="st3 st4">def function_name(parameters):</tspan><tspan x="-23.4" y="28.8" class="st3 st4">we choose this name</tspan></text>
<text transform="matrix(1 0 0 1 139.4587 272.0453)"><tspan x="0" y="0" class="st3 st4">constant variable</tspan><tspan x="-70.3" y="14.4" class="st3 st4">all uppercase with underscore,</tspan><tspan x="-21.3" y="28.8" class="st3 st4">we choose this name</tspan></text>
<g>
	<line class="st0" x1="237" y1="351" x2="309" y2="391"/>
	<g>
		<line class="st1" x1="237" y1="351" x2="298.6" y2="385.2"/>
		<g>
			<polygon class="st2" points="290.1,388.9 296.4,384 297.2,376 309,391 			"/>
		</g>
	</g>
</g>
<text transform="matrix(1 0 0 1 153.7203 334.6245)"><tspan x="0" y="0" class="st3 st4">global variable</tspan><tspan x="-103.1" y="14.4" class="st3 st4">this is a variable declared outside </tspan><tspan x="-130.3" y="28.8" class="st3 st4">a function, accessible from everywhere</tspan></text>
<g>
	<line class="st0" x1="1136" y1="75" x2="684" y2="83"/>
	<g>
		<line class="st1" x1="1136" y1="75" x2="695.9" y2="82.8"/>
		<g>
			<polygon class="st2" points="701.4,75.3 698.4,82.7 701.7,90.1 684,83 			"/>
		</g>
	</g>
</g>
<text transform="matrix(1 0 0 1 1156.9331 74.8146)" class="st3 st4">Single-line comment</text>
<text transform="matrix(1 0 0 1 69.2103 211.0297)"><tspan x="0" y="0" class="st3 st4">Import a specific class (Thing)</tspan><tspan x="45.9" y="14.4" class="st3 st4">from a module (thing)</tspan><tspan x="-49.8" y="28.8" class="st3 st4">as part of a package (dcd.bucket.thing) </tspan></text>
<text transform="matrix(1 0 0 1 66.5563 100.8298)" class="st3 st4">import a complete module (os)</text>
<text transform="matrix(1 0 0 1 81.2574 136.23)"><tspan x="0" y="0" class="st3 st4">import a function (load_env)</tspan><tspan x="24.3" y="14.4" class="st3 st4">from a module (dotenv)</tspan></text>
<g>
	<line class="st0" x1="242" y1="104" x2="310" y2="120"/>
	<g>
		<line class="st1" x1="242" y1="104" x2="298.4" y2="117.3"/>
		<g>
			<polygon class="st2" points="291.2,123.2 296,116.7 294.6,108.8 310,120 			"/>
		</g>
	</g>
</g>
<g>
	<line class="st0" x1="242" y1="139" x2="310" y2="141"/>
	<g>
		<line class="st1" x1="242" y1="139" x2="298.1" y2="140.6"/>
		<g>
			<polygon class="st2" points="292.2,147.9 295.6,140.6 292.7,133.1 310,141 			"/>
		</g>
	</g>
</g>
<g>
	<line class="st0" x1="242" y1="553" x2="345" y2="468"/>
	<g>
		<line class="st1" x1="242" y1="553" x2="335.8" y2="475.6"/>
		<g>
			<polygon class="st2" points="336.2,484.9 333.9,477.2 326.7,473.5 345,468 			"/>
		</g>
	</g>
</g>
<text transform="matrix(1 0 0 1 94.7632 553.2242)"><tspan x="0" y="0" class="st3 st4">variable of type Lightbulb,</tspan><tspan x="-24.3" y="14.4" class="st3 st4">all lowercase with underscore,</tspan><tspan x="23.4" y="28.8" class="st3 st4">we choose this name</tspan></text>
<g>
	<path class="st0" d="M478,465"/>
</g>
<g>
	<path class="st0" d="M410,819"/>
</g>
<text transform="matrix(1 0 0 1 502.3801 626.6047)"><tspan x="0" y="0" class="st3 st4">Call to the constructor of</tspan><tspan x="0" y="14.4" class="st3 st4">the class Lightbulb __init__()</tspan></text>
<g>
	<g>
		<path class="st1" d="M485.6,485.7c7.7,39.8,25,176.4-57.9,333.8"/>
		<g>
			<polygon class="st2" points="479.4,492.7 486,488.1 493.9,489.6 483,474 			"/>
		</g>
		<g>
			<polygon class="st2" points="423.7,811 428.8,817.3 436.8,818 422,830 			"/>
		</g>
	</g>
</g>
<text transform="matrix(1 0 0 1 157.447 743.0598)"><tspan x="0" y="0" class="st3 st4">define a class</tspan><tspan x="-51.2" y="14.4" class="st3 st4">start with an uppercase</tspan><tspan x="-39.3" y="28.8" class="st3 st4">we choose this name</tspan></text>
<g>
	<line class="st0" x1="242" y1="753" x2="327" y2="799"/>
	<g>
		<line class="st1" x1="242" y1="753" x2="316.5" y2="793.3"/>
		<g>
			<polygon class="st2" points="308,797.2 314.3,792.1 315.1,784.1 327,799 			"/>
		</g>
	</g>
</g>
<text transform="matrix(1 0 0 1 184.8977 803.4413)"><tspan x="0" y="0" class="st3 st4">__init__()</tspan><tspan x="-69.9" y="14.4" class="st3 st4">constructor of a class</tspan></text>
<g>
	<line class="st0" x1="242" y1="803" x2="386" y2="843"/>
	<g>
		<line class="st1" x1="242" y1="803" x2="374.5" y2="839.8"/>
		<g>
			<polygon class="st2" points="367.1,845.4 372.1,839.1 371.1,831.2 386,843 			"/>
		</g>
	</g>
</g>
<text transform="matrix(1 0 0 1 848.08 626.6044)"><tspan x="0" y="0" class="st3 st4">self</tspan><tspan x="0" y="14.4" class="st3 st4">reference to the object of the class</tspan></text>
<g>
	<line class="st0" x1="844" y1="644" x2="462" y2="837"/>
	<g>
		<line class="st1" x1="844" y1="644" x2="472.7" y2="831.6"/>
		<g>
			<polygon class="st2" points="474.3,822.5 474.9,830.5 481,835.7 462,837 			"/>
		</g>
	</g>
</g>
<g>
	<line class="st0" x1="1120" y1="1097" x2="780" y2="1066"/>
	<g>
		<line class="st1" x1="1120" y1="1097" x2="791.9" y2="1067.1"/>
		<g>
			<polygon class="st2" points="798.2,1060.2 794.4,1067.3 796.8,1075 780,1066 			"/>
		</g>
	</g>
</g>
<text transform="matrix(1 0 0 1 1156.9417 1094.0903)"><tspan x="0" y="0" class="st3 st4">define of a method (a function of a class)</tspan><tspan x="0" y="14.4" class="st3 st4">the first parameter is always self</tspan><tspan x="0" y="43.2" class="st3 st4">call from inside the class</tspan><tspan x="0" y="57.6" class="st3 st4">self.blink()</tspan><tspan x="0" y="86.4" class="st3 st4">call from outside the class</tspan><tspan x="0" y="100.8" class="st3 st4">my_lightbulb.blink()</tspan></text>
<g>
	<line class="st0" x1="1120" y1="954" x2="752" y2="1049"/>
	<g>
		<line class="st1" x1="1120" y1="954" x2="763.6" y2="1046"/>
		<g>
			<polygon class="st2" points="767.1,1037.4 766,1045.4 770.9,1051.8 752,1049 			"/>
		</g>
	</g>
</g>
<text transform="matrix(1 0 0 1 1156.9415 943.3335)"><tspan x="0" y="0" class="st3 st4">parameter with a default value</tspan><tspan x="0" y="14.4" class="st3 st4">blink() can be called without paramters</tspan><tspan x="0" y="28.8" class="st3 st4">because all of them have default values</tspan></text>
<g>
	<line class="st0" x1="240" y1="898" x2="342" y2="954"/>
	<g>
		<line class="st1" x1="240" y1="898" x2="331.5" y2="948.3"/>
		<g>
			<polygon class="st2" points="323,952 329.4,947.1 330.2,939.1 342,954 			"/>
		</g>
	</g>
</g>
<text transform="matrix(1 0 0 1 199.8981 883.5195)"><tspan x="0" y="0" class="st3 st4">async</tspan><tspan x="-131" y="14.4" class="st3 st4">This function is asynchronous,</tspan><tspan x="-185.5" y="28.8" class="st3 st4">because it contains an ‘await’ statement </tspan></text>
<text transform="matrix(1 0 0 1 202.2884 1000.9191)"><tspan x="0" y="0" class="st3 st4">await</tspan><tspan x="-157.7" y="14.4" class="st3 st4">to get an update from the lightbulb,</tspan><tspan x="-157" y="28.8" class="st3 st4">we send a request, we need to wait</tspan><tspan x="-157.9" y="43.2" class="st3 st4">for the response before continuing </tspan></text>
<g>
	<line class="st0" x1="1136" y1="1259" x2="590" y2="1142"/>
	<g>
		<line class="st1" x1="1136" y1="1259" x2="601.7" y2="1144.5"/>
		<g>
			<polygon class="st2" points="608.7,1138.4 604.1,1145 605.6,1152.9 590,1142 			"/>
		</g>
	</g>
</g>
<text transform="matrix(1 0 0 1 1156.9419 1265.9517)"><tspan x="0" y="0" class="st3 st4">the dot access the attribute or</tspan><tspan x="0" y="14.4" class="st3 st4">method of this object</tspan></text>
<g>
	<line class="st0" x1="240" y1="1397" x2="342" y2="1442"/>
	<g>
		<line class="st1" x1="240" y1="1397" x2="331.1" y2="1437.2"/>
		<g>
			<polygon class="st2" points="322.9,1441.7 328.8,1436.2 328.9,1428.1 342,1442 			"/>
		</g>
	</g>
</g>
<text transform="matrix(1 0 0 1 199.5582 1350.2397)"><tspan x="0" y="0" class="st3 st4">return</tspan><tspan x="-193.2" y="14.4" class="st3 st4">what is given the the caller of this function</tspan><tspan x="-107.7" y="28.8" class="st3 st4">it terminates the function, </tspan><tspan x="-103.1" y="43.2" class="st3 st4">even if there is code after</tspan></text>
<g>
	<line class="st0" x1="1134" y1="164" x2="777" y2="236"/>
	<g>
		<line class="st1" x1="1134" y1="164" x2="788.7" y2="233.6"/>
		<g>
			<polygon class="st2" points="792.7,225.3 791.1,233.2 795.7,239.8 777,236 			"/>
		</g>
	</g>
</g>
<text transform="matrix(1 0 0 1 1159.9417 157.7945)"><tspan x="0" y="0" class="st3 st4">string (sequence of characters)</tspan><tspan x="0" y="14.4" class="st3 st4">as a function parameter</tspan></text>
<text transform="matrix(1 0 0 1 1156.9415 1333.9082)"><tspan x="0" y="0" class="st3 st4">sleep()</tspan><tspan x="0" y="14.4" class="st3 st4">function imported from the time</tspan><tspan x="0" y="28.8" class="st3 st4">module at the top of the file</tspan></text>
<g>
	<line class="st0" x1="1136" y1="1332" x2="566" y2="1244"/>
	<g>
		<line class="st1" x1="1136" y1="1332" x2="577.8" y2="1245.8"/>
		<g>
			<polygon class="st2" points="584.5,1239.4 580.2,1246.2 582.2,1254 566,1244 			"/>
		</g>
	</g>
</g>
<text transform="matrix(1 0 0 1 65.474 1137.6572)"><tspan x="0" y="0" class="st3 st4">values (we choose this name)</tspan><tspan x="5" y="14.4" class="st3 st4">variable containing the result</tspan><tspan x="-3.3" y="28.8" class="st3 st4">returned by bulb_result_to_list </tspan></text>
<g>
	<g>
		<path class="st1" d="M387.4,1184.2c-33.5,26.6-139,123.9-52.9,238.5"/>
		<g>
			<polygon class="st2" points="378.5,1181.7 385.5,1185.7 387.5,1193.5 397,1177 			"/>
		</g>
		<g>
			<polygon class="st2" points="325.3,1422.7 333.1,1420.7 337,1413.6 342,1432 			"/>
		</g>
	</g>
</g>
<text transform="matrix(1 0 0 1 1156.9409 1414.958)"><tspan x="0" y="0" class="st3 st4">square brackets</tspan><tspan x="0" y="14.4" class="st3 st4">define a list of elements</tspan></text>
<g>
	<line class="st0" x1="1136.3" y1="1411.6" x2="801" y2="1440"/>
	<g>
		<line class="st1" x1="1136.3" y1="1411.6" x2="812.9" y2="1439"/>
		<g>
			<polygon class="st2" points="817.9,1431.1 815.4,1438.8 819.1,1445.9 801,1440 			"/>
		</g>
	</g>
</g>
<g>
	<line class="st0" x1="240" y1="1001" x2="373" y2="1027"/>
	<g>
		<line class="st1" x1="240" y1="1001" x2="361.3" y2="1024.7"/>
		<g>
			<polygon class="st2" points="354.3,1030.9 358.9,1024.2 357.2,1016.4 373,1027 			"/>
		</g>
	</g>
</g>
<g>
	<line class="st0" x1="234" y1="1139.6" x2="390" y2="1169"/>
	<g>
		<line class="st1" x1="234" y1="1139.6" x2="378.3" y2="1166.8"/>
		<g>
			<polygon class="st2" points="371.4,1173 375.8,1166.3 374.1,1158.5 390,1169 			"/>
		</g>
	</g>
</g>
<g>
	<line class="st0" x1="1134" y1="408" x2="474" y2="295"/>
	<g>
		<line class="st1" x1="1134" y1="408" x2="485.8" y2="297"/>
		<g>
			<polygon class="st2" points="492.6,290.7 488.2,297.4 490.1,305.3 474,295 			"/>
		</g>
	</g>
</g>
<text transform="matrix(1 0 0 1 1160.1936 407.6658)"><tspan x="0" y="0" class="st3 st4">equal sign =</tspan><tspan x="0" y="14.4" class="st3 st4">variable assignment</tspan><tspan x="0" y="28.8" class="st3 st4">we store the value 5 in memory</tspan><tspan x="0" y="43.2" class="st3 st4">we can access this value from the </tspan><tspan x="0" y="57.6" class="st3 st4">name of this variable</tspan></text>
</svg>
