<?xml version="1.0" encoding="utf-8"?>
<!-- Generator: Adobe Illustrator 24.3.0, SVG Export Plug-In . SVG Version: 6.00 Build 0)  -->
<svg version="1.1" id="Layer_1" xmlns="http://www.w3.org/2000/svg" xmlns:xlink="http://www.w3.org/1999/xlink" x="0px" y="0px"
	 viewBox="0 0 1920 478" style="enable-background:new 0 0 1920 478;" xml:space="preserve">
<style type="text/css">
	.st0{fill:#FFFFFF;}
	.st1{fill:none;stroke:#000000;stroke-width:3;stroke-miterlimit:10;}
	.st2{font-family:'PTSans-NarrowBold';}
	.st3{font-size:36px;}
	.st4{fill:#FFFFFF;stroke:#000000;stroke-width:3;stroke-miterlimit:10;}
</style>
<g>
	<g>
		<line class="st1" x1="160.5" y1="201" x2="312.1" y2="201"/>
		<g>
			<polygon points="303.7,212.1 308.4,201 303.7,189.9 330,201 			"/>
		</g>
	</g>
</g>
<text transform="matrix(1 0 0 1 363.2725 64.0908)" class="st2 st3">Refactor Code</text>
<text transform="matrix(1 0 0 1 32.2219 209.3571)" class="st2 st3">Lab XP 3</text>
<text transform="matrix(1 0 0 1 361.3352 208.3571)"><tspan x="0" y="0" class="st2 st3">Clean Sensor</tspan><tspan x="0" y="43.2" class="st2 st3">Data</tspan></text>
<text transform="matrix(1 0 0 1 1219.2197 65.4173)" class="st2 st3">Light Event</text>
<g>
	<g>
		<line class="st1" x1="219" y1="348.5" x2="321.1" y2="348.5"/>
		<g>
			<polygon points="312.7,359.6 317.4,348.5 312.7,337.4 339,348.5 			"/>
		</g>
	</g>
</g>
<g>
	<g>
		<line class="st1" x1="219" y1="54.5" x2="321.1" y2="54.5"/>
		<g>
			<polygon points="312.7,65.6 317.4,54.5 312.7,43.4 339,54.5 			"/>
		</g>
	</g>
</g>
<line class="st4" x1="218.5" y1="54" x2="218.5" y2="348.5"/>
<text transform="matrix(1 0 0 1 786.6113 171.1836)"><tspan x="0" y="0" class="st2 st3">Map the lightbulb</tspan><tspan x="46.1" y="43.2" class="st2 st3">Brightness</tspan><tspan x="19.8" y="86.4" class="st2 st3">to sensor data </tspan></text>
<line class="st4" x1="694.6" y1="53.7" x2="694.6" y2="348.2"/>
<line class="st4" x1="574" y1="348.5" x2="694" y2="348.5"/>
<line class="st4" x1="574" y1="54.5" x2="694" y2="54.5"/>
<g>
	<g>
		<line class="st1" x1="576.2" y1="200.9" x2="727.8" y2="200.9"/>
		<g>
			<polygon points="719.4,212.1 724.1,200.9 719.4,189.8 745.7,200.9 			"/>
		</g>
	</g>
</g>
<text transform="matrix(1 0 0 1 362.4955 358.7272)" class="st2 st3">Make a Service</text>
<g>
	<g>
		<line class="st1" x1="1015.6" y1="200.3" x2="1167.2" y2="200.3"/>
		<g>
			<polygon points="1158.7,211.5 1163.4,200.3 1158.7,189.2 1185.1,200.3 			"/>
		</g>
	</g>
</g>
<g>
	<g>
		<line class="st1" x1="1074.1" y1="347.8" x2="1176.2" y2="347.8"/>
		<g>
			<polygon points="1167.7,359 1172.4,347.8 1167.7,336.7 1194.1,347.8 			"/>
		</g>
	</g>
</g>
<g>
	<g>
		<line class="st1" x1="1074.1" y1="53.8" x2="1176.2" y2="53.8"/>
		<g>
			<polygon points="1167.7,65 1172.4,53.8 1167.7,42.7 1194.1,53.8 			"/>
		</g>
	</g>
</g>
<line class="st4" x1="1073.6" y1="53.3" x2="1073.6" y2="347.8"/>
<text transform="matrix(1 0 0 1 1589.0592 191.099)"><tspan x="0" y="0" class="st2 st3">Control the Light</tspan><tspan x="28.9" y="43.2" class="st2 st3">From Sensor</tspan></text>
<line class="st4" x1="1512.3" y1="53.7" x2="1512.3" y2="348.2"/>
<line class="st4" x1="1391.7" y1="348.5" x2="1511.7" y2="348.5"/>
<line class="st4" x1="1391.7" y1="54.5" x2="1511.7" y2="54.5"/>
<g>
	<g>
		<line class="st1" x1="1393.9" y1="200.9" x2="1545.5" y2="200.9"/>
		<g>
			<polygon points="1537.1,212 1541.8,200.9 1537.1,189.8 1563.4,200.9 			"/>
		</g>
	</g>
</g>
<text transform="matrix(1 0 0 1 1216.739 209.8421)" class="st2 st3">Range Event</text>
<text transform="matrix(1 0 0 1 1220.9634 359.1088)" class="st2 st3">Trend Event</text>
<text transform="matrix(1 0 0 1 406.7503 447.8045)" class="st2 st3">Step 1</text>
<text transform="matrix(1 0 0 1 855.7489 447.8046)" class="st2 st3">Step 2</text>
<text transform="matrix(1 0 0 1 1251.749 447.8047)" class="st2 st3">Step 3</text>
<text transform="matrix(1 0 0 1 1657.749 447.8049)" class="st2 st3">Step 4</text>
</svg>
